<?xml version="1.0" encoding="utf-8"?>
<!-- Generator: Adobe Illustrator 28.0.0, SVG Export Plug-In . SVG Version: 6.00 Build 0)  -->
<svg version="1.1" id="Layer_1" xmlns="http://www.w3.org/2000/svg" xmlns:xlink="http://www.w3.org/1999/xlink" x="0px" y="0px"
	 viewBox="0 0 800 800" style="enable-background:new 0 0 800 800;" xml:space="preserve">
<style type="text/css">
	.st0{fill:#FFFFFF;}
</style>
<g id="Layer_2">
</g>
<g>
	<path class="st0" d="M668,801H130C58,801-1,742-1,670V132C-1,60,58,1,130,1h538c72,0,131,59,131,131v538C799,742,740,801,668,801z"
		/>
	<path class="st0" d="M668,801v-0.5H130c-35.9,0-68.5-14.7-92.2-38.3C14.2,738.5-0.5,705.9-0.5,670h0V132h0
		c0-35.9,14.7-68.5,38.3-92.2C61.5,16.2,94.1,1.5,130,1.5h538c35.9,0,68.5,14.7,92.2,38.3c23.7,23.7,38.3,56.3,38.3,92.2v538
		c0,35.9-14.7,68.5-38.3,92.2c-23.7,23.7-56.3,38.3-92.2,38.3h0V801v0.5c72.3,0,131.5-59.2,131.5-131.5V132
		C799.5,59.7,740.3,0.5,668,0.5H130C57.7,0.5-1.5,59.7-1.5,132h0v538c0,72.3,59.2,131.5,131.5,131.5h0h538l0,0V801z"/>
	<path d="M113.3,260L320,415c11.8,8.9,24.8,15.6,38.3,20c13.5,4.4,27.6,6.7,41.7,6.7c14.1,0,28.1-2.2,41.7-6.7
		c13.5-4.4,26.5-11.1,38.3-20l206.7-155c14.7-11,17.7-31.9,6.7-46.7c-11-14.7-31.9-17.7-46.7-6.7L440,361.7c-6,4.5-12.4,7.8-19.2,10
		c-6.7,2.2-13.8,3.3-20.8,3.3c-7,0-14.1-1.1-20.8-3.3c-6.8-2.2-13.2-5.5-19.2-10l-206.7-155c-14.7-11-35.6-8.1-46.7,6.7
		C95.6,228.1,98.6,249,113.3,260L113.3,260z"/>
	<path d="M166.7,166.7V200h466.7c4.7,0,9,0.9,13,2.6c5.9,2.5,11.1,6.8,14.7,12.1c1.8,2.7,3.2,5.6,4.2,8.7c1,3.1,1.5,6.4,1.5,9.9
		v333.3c0,4.7-0.9,9-2.6,13c-2.5,5.9-6.8,11.1-12.1,14.7c-2.7,1.8-5.6,3.2-8.7,4.2c-3.1,1-6.4,1.5-9.9,1.5H166.7
		c-4.7,0-9-0.9-13-2.6c-5.9-2.5-11.1-6.8-14.7-12.1c-1.8-2.7-3.2-5.6-4.2-8.7c-1-3.1-1.5-6.4-1.5-9.9V233.3c0-4.7,0.9-9,2.6-13
		c2.5-5.9,6.8-11.1,12.1-14.7c2.7-1.8,5.6-3.2,8.7-4.2c3.1-1,6.4-1.5,9.9-1.5V166.7v-33.3c-13.7,0-27,2.8-38.9,7.9
		c-18,7.6-33.2,20.3-44,36.2c-5.4,8-9.7,16.8-12.6,26.2c-2.9,9.4-4.5,19.4-4.5,29.7v333.3c0,13.7,2.8,27,7.9,38.9
		c7.6,18,20.3,33.2,36.2,44c8,5.4,16.8,9.7,26.2,12.6c9.4,2.9,19.4,4.5,29.7,4.5h466.7c13.7,0,27-2.8,38.9-7.9
		c18-7.6,33.2-20.3,44-36.2c5.4-8,9.7-16.8,12.6-26.2c2.9-9.4,4.5-19.4,4.5-29.7V233.3c0-13.7-2.8-27-7.9-38.9
		c-7.6-18-20.3-33.2-36.2-44c-8-5.4-16.8-9.7-26.2-12.6c-9.4-2.9-19.4-4.5-29.7-4.5H166.7L166.7,166.7z"/>
</g>
</svg>
